<svg version="1.1" id="Layer_1" xmlns="http://www.w3.org/2000/svg" xmlns:xlink="http://www.w3.org/1999/xlink" x="0px" y="0px"
	 width="100%" viewBox="0 0 1448 756" enable-background="new 0 0 1448 756" xml:space="preserve">
<path fill="#000000" opacity="1.000000" stroke="none" 
	d="
M41.603668,691.406006 
	C16.385185,666.756042 3.885393,637.158813 3.895442,602.191345 
	C3.941084,443.362091 3.901538,284.532867 3.922491,125.703613 
	C3.930565,64.501991 45.644394,15.246002 105.932884,5.355658 
	C111.821594,4.389614 117.875290,4.056753 123.852493,4.055850 
	C513.842468,3.996895 903.832458,3.932313 1293.822388,4.108268 
	C1334.069214,4.126427 1366.360596,21.251917 1390.814819,53.217644 
	C1392.502563,55.423885 1394.564941,57.446117 1396.772949,59.136440 
	C1428.582275,83.489624 1445.682861,115.695961 1445.767700,155.698227 
	C1446.107666,315.860046 1445.985596,476.023102 1445.871216,636.185608 
	C1445.823853,702.431213 1392.139404,755.972168 1325.936646,755.978638 
	C935.946655,756.016968 545.956665,756.062195 155.966736,755.898804 
	C116.332619,755.882202 84.463486,739.156921 59.748440,708.139832 
	C54.754280,701.872253 47.870800,697.110168 41.603668,691.406006 
M23.921495,211.500000 
	C23.922222,342.162109 23.879326,472.824249 23.944056,603.486328 
	C23.971930,659.750427 68.342491,703.989014 124.608551,703.991028 
	C514.098511,704.004883 903.588501,704.004700 1293.078491,703.991394 
	C1349.263916,703.989441 1393.875977,659.596069 1393.897217,603.499573 
	C1393.957642,443.837006 1393.928711,284.174469 1393.871338,124.511925 
	C1393.869507,119.366234 1393.540405,114.162827 1392.741699,109.084198 
	C1384.946533,59.525257 1343.320312,24.009275 1293.089966,24.007872 
	C903.599976,23.996984 514.110046,23.995647 124.620049,24.008837 
	C68.349449,24.010742 24.049887,68.242691 23.933918,124.502235 
	C23.874828,153.168030 23.922192,181.834076 23.921495,211.500000 
z"/>
<path fill="#216AC4" opacity="1.000000" stroke="none" 
	d="
M23.921467,211.000000 
	C23.922192,181.834076 23.874828,153.168030 23.933918,124.502235 
	C24.049887,68.242691 68.349449,24.010742 124.620049,24.008837 
	C514.110046,23.995647 903.599976,23.996984 1293.089966,24.007872 
	C1343.320312,24.009275 1384.946533,59.525257 1392.741699,109.084198 
	C1393.540405,114.162827 1393.869507,119.366234 1393.871338,124.511925 
	C1393.928711,284.174469 1393.957642,443.837006 1393.897217,603.499573 
	C1393.875977,659.596069 1349.263916,703.989441 1293.078491,703.991394 
	C903.588501,704.004700 514.098511,704.004883 124.608551,703.991028 
	C68.342491,703.989014 23.971930,659.750427 23.944056,603.486328 
	C23.879326,472.824249 23.922222,342.162109 23.921467,211.000000 
M208.300095,472.818970 
	C207.551941,486.396393 206.803772,499.973785 206.051544,513.624878 
	C227.534897,513.624878 248.570221,513.624878 269.761780,513.624878 
	C272.316315,437.952759 274.858368,362.650940 277.400421,287.349121 
	C278.976868,288.672455 279.573273,290.120728 280.090027,291.596893 
	C300.771210,350.671326 321.482849,409.735229 342.025879,468.857697 
	C343.252045,472.386536 344.943756,473.298279 348.437469,473.250488 
	C362.098907,473.063599 375.767029,473.027985 389.426727,473.270721 
	C393.114441,473.336243 394.554657,472.042053 395.715973,468.684296 
	C414.381958,414.714752 433.183228,360.792023 451.965393,306.862732 
	C454.366943,299.967102 456.833069,293.093994 459.725739,284.920532 
	C462.334259,362.143127 464.892059,437.865295 467.452332,513.659668 
	C489.149323,513.659668 510.378082,513.659668 531.762756,513.659668 
	C525.588928,406.658386 519.435242,300.007324 513.277405,193.282562 
	C487.772430,193.282562 463.133972,193.282562 438.216675,193.282562 
	C415.171814,261.731018 392.138031,330.146576 368.733063,399.664642 
	C345.378052,330.046326 322.428070,261.635162 299.531433,193.383194 
	C274.422180,193.383194 249.804413,193.383194 224.845398,193.383194 
	C224.585281,196.888519 224.292236,200.190460 224.102432,203.498337 
	C222.623154,229.276611 221.190903,255.057602 219.692169,280.834747 
	C217.130020,324.901733 214.542007,368.967285 211.940460,413.031982 
	C210.782181,432.650848 209.564621,452.266205 208.300095,472.818970 
M1074.002075,352.500000 
	C1074.002075,299.736328 1074.002075,246.972641 1074.002075,194.177460 
	C1050.555786,194.177460 1027.678711,194.177460 1004.407776,194.177460 
	C1004.407776,196.500702 1004.407776,198.475433 1004.407776,200.450180 
	C1004.407715,263.600586 1004.615356,326.752228 1004.248901,389.900513 
	C1004.166199,404.148346 1002.903015,418.513916 1000.681885,432.588379 
	C998.617126,445.671753 991.237061,455.687988 977.632263,459.387604 
	C963.508972,463.228180 949.288940,463.185547 935.236084,458.961517 
	C924.361816,455.692963 916.758789,448.481903 914.413391,437.418152 
	C912.079956,426.410919 910.080933,415.086761 910.004211,403.887421 
	C909.538391,335.908325 909.664062,267.925171 909.592529,199.943375 
	C909.590515,198.011261 909.592224,196.079147 909.592224,194.165192 
	C885.980530,194.165192 863.075378,194.165192 839.990479,194.165192 
	C839.925781,195.637909 839.831726,196.779892 839.831665,197.921875 
	C839.826172,263.738281 839.764526,329.554749 839.867249,395.371002 
	C839.899841,416.265533 842.102844,436.846375 848.871094,456.847443 
	C856.759521,480.158661 871.137329,497.370544 893.639404,507.780579 
	C910.745544,515.694336 928.844177,518.822388 947.431763,519.444519 
	C973.313721,520.310669 998.696533,517.726013 1022.362427,506.097137 
	C1034.937866,499.917877 1045.897095,491.633362 1053.682739,479.733429 
	C1067.635254,458.407745 1072.388184,434.308990 1073.577148,409.475189 
	C1074.468506,390.852692 1073.913208,372.160919 1074.002075,352.500000 
M569.858887,354.405945 
	C568.924805,362.985992 567.399231,371.549896 567.164062,380.149048 
	C566.356934,409.663269 569.099609,438.662384 582.005371,465.826263 
	C592.788086,488.521515 609.970520,504.287170 633.655212,512.782654 
	C648.029907,517.938660 662.945007,519.920532 678.182251,520.143860 
	C707.300720,520.570679 735.412048,515.834229 762.743530,504.404633 
	C758.903870,489.215240 755.099182,474.164276 751.164001,458.596863 
	C733.276978,465.496490 715.289307,469.084930 696.702271,469.709412 
	C668.476868,470.657715 644.055420,460.889343 634.678345,430.754517 
	C631.366821,420.112183 629.681274,409.267334 630.057495,397.811218 
	C673.587585,397.811218 716.542358,397.811218 759.526367,397.811218 
	C759.935120,396.651215 760.346802,395.752808 760.570007,394.809814 
	C765.433899,374.270294 767.727844,353.497467 764.912842,332.475403 
	C760.703857,301.042633 741.744385,277.022522 711.009521,268.064758 
	C691.615784,262.412476 671.894409,262.102051 652.249939,265.591736 
	C630.947021,269.375977 612.356201,278.797760 597.895813,295.412903 
	C583.253052,312.237549 574.418457,331.841003 569.858887,354.405945 
M1202.152954,236.500015 
	C1202.152954,222.232025 1202.152954,207.964020 1202.152954,193.585083 
	C1178.806396,193.585083 1156.081787,193.585083 1133.349609,193.585083 
	C1133.349609,300.489990 1133.349609,407.056580 1133.349609,513.688110 
	C1156.375122,513.688110 1179.107056,513.688110 1202.152954,513.688110 
	C1202.152954,421.417206 1202.152954,329.458618 1202.152954,236.500015 
z"/>
<path fill="#FEFEFF" opacity="1.000000" stroke="none" 
	d="
M208.337036,472.351074 
	C209.564621,452.266205 210.782181,432.650848 211.940460,413.031982 
	C214.542007,368.967285 217.130020,324.901733 219.692169,280.834747 
	C221.190903,255.057602 222.623154,229.276611 224.102432,203.498337 
	C224.292236,200.190460 224.585281,196.888519 224.845398,193.383194 
	C249.804413,193.383194 274.422180,193.383194 299.531433,193.383194 
	C322.428070,261.635162 345.378052,330.046326 368.733063,399.664642 
	C392.138031,330.146576 415.171814,261.731018 438.216675,193.282562 
	C463.133972,193.282562 487.772430,193.282562 513.277405,193.282562 
	C519.435242,300.007324 525.588928,406.658386 531.762756,513.659668 
	C510.378082,513.659668 489.149323,513.659668 467.452332,513.659668 
	C464.892059,437.865295 462.334259,362.143127 459.725739,284.920532 
	C456.833069,293.093994 454.366943,299.967102 451.965393,306.862732 
	C433.183228,360.792023 414.381958,414.714752 395.715973,468.684296 
	C394.554657,472.042053 393.114441,473.336243 389.426727,473.270721 
	C375.767029,473.027985 362.098907,473.063599 348.437469,473.250488 
	C344.943756,473.298279 343.252045,472.386536 342.025879,468.857697 
	C321.482849,409.735229 300.771210,350.671326 280.090027,291.596893 
	C279.573273,290.120728 278.976868,288.672455 277.400421,287.349121 
	C274.858368,362.650940 272.316315,437.952759 269.761780,513.624878 
	C248.570221,513.624878 227.534897,513.624878 206.051544,513.624878 
	C206.803772,499.973785 207.551941,486.396393 208.337036,472.351074 
z"/>
<path fill="#FEFEFF" opacity="1.000000" stroke="none" 
	d="
M1074.002075,353.000000 
	C1073.913208,372.160919 1074.468506,390.852692 1073.577148,409.475189 
	C1072.388184,434.308990 1067.635254,458.407745 1053.682739,479.733429 
	C1045.897095,491.633362 1034.937866,499.917877 1022.362427,506.097137 
	C998.696533,517.726013 973.313721,520.310669 947.431763,519.444519 
	C928.844177,518.822388 910.745544,515.694336 893.639404,507.780579 
	C871.137329,497.370544 856.759521,480.158661 848.871094,456.847443 
	C842.102844,436.846375 839.899841,416.265533 839.867249,395.371002 
	C839.764526,329.554749 839.826172,263.738281 839.831665,197.921875 
	C839.831726,196.779892 839.925781,195.637909 839.990479,194.165192 
	C863.075378,194.165192 885.980530,194.165192 909.592224,194.165192 
	C909.592224,196.079147 909.590515,198.011261 909.592529,199.943375 
	C909.664062,267.925171 909.538391,335.908325 910.004211,403.887421 
	C910.080933,415.086761 912.079956,426.410919 914.413391,437.418152 
	C916.758789,448.481903 924.361816,455.692963 935.236084,458.961517 
	C949.288940,463.185547 963.508972,463.228180 977.632263,459.387604 
	C991.237061,455.687988 998.617126,445.671753 1000.681885,432.588379 
	C1002.903015,418.513916 1004.166199,404.148346 1004.248901,389.900513 
	C1004.615356,326.752228 1004.407715,263.600586 1004.407776,200.450180 
	C1004.407776,198.475433 1004.407776,196.500702 1004.407776,194.177460 
	C1027.678711,194.177460 1050.555786,194.177460 1074.002075,194.177460 
	C1074.002075,246.972641 1074.002075,299.736328 1074.002075,353.000000 
z"/>
<path fill="#FDFEFF" opacity="1.000000" stroke="none" 
	d="
M569.923828,353.984314 
	C574.418457,331.841003 583.253052,312.237549 597.895813,295.412903 
	C612.356201,278.797760 630.947021,269.375977 652.249939,265.591736 
	C671.894409,262.102051 691.615784,262.412476 711.009521,268.064758 
	C741.744385,277.022522 760.703857,301.042633 764.912842,332.475403 
	C767.727844,353.497467 765.433899,374.270294 760.570007,394.809814 
	C760.346802,395.752808 759.935120,396.651215 759.526367,397.811218 
	C716.542358,397.811218 673.587585,397.811218 630.057495,397.811218 
	C629.681274,409.267334 631.366821,420.112183 634.678345,430.754517 
	C644.055420,460.889343 668.476868,470.657715 696.702271,469.709412 
	C715.289307,469.084930 733.276978,465.496490 751.164001,458.596863 
	C755.099182,474.164276 758.903870,489.215240 762.743530,504.404633 
	C735.412048,515.834229 707.300720,520.570679 678.182251,520.143860 
	C662.945007,519.920532 648.029907,517.938660 633.655212,512.782654 
	C609.970520,504.287170 592.788086,488.521515 582.005371,465.826263 
	C569.099609,438.662384 566.356934,409.663269 567.164062,380.149048 
	C567.399231,371.549896 568.924805,362.985992 569.923828,353.984314 
M637.838257,336.424133 
	C635.149231,344.451752 632.460266,352.479370 629.657104,360.847839 
	C657.918091,360.847839 684.830505,360.847839 712.102844,360.847839 
	C712.292297,349.864166 711.653137,339.336670 707.350159,329.352936 
	C703.989075,321.554535 698.756897,315.548981 690.374329,313.006256 
	C671.960693,307.420715 648.677490,313.815582 637.838257,336.424133 
z"/>
<path fill="#FEFFFF" opacity="1.000000" stroke="none" 
	d="
M1202.152954,237.000031 
	C1202.152954,329.458618 1202.152954,421.417206 1202.152954,513.688110 
	C1179.107056,513.688110 1156.375122,513.688110 1133.349609,513.688110 
	C1133.349609,407.056580 1133.349609,300.489990 1133.349609,193.585083 
	C1156.081787,193.585083 1178.806396,193.585083 1202.152954,193.585083 
	C1202.152954,207.964020 1202.152954,222.232025 1202.152954,237.000031 
z"/>
<path fill="#226AC4" opacity="1.000000" stroke="none" 
	d="
M637.980103,336.077637 
	C648.677490,313.815582 671.960693,307.420715 690.374329,313.006256 
	C698.756897,315.548981 703.989075,321.554535 707.350159,329.352936 
	C711.653137,339.336670 712.292297,349.864166 712.102844,360.847839 
	C684.830505,360.847839 657.918091,360.847839 629.657104,360.847839 
	C632.460266,352.479370 635.149231,344.451752 637.980103,336.077637 
z"/>
</svg>