<svg version="1.1" id="Layer_1" xmlns="http://www.w3.org/2000/svg" xmlns:xlink="http://www.w3.org/1999/xlink" x="0px" y="0px"
	 width="100%" viewBox="0 0 837 837" xml:space="preserve">
<path fill="#000101" opacity="1.000000" stroke="none" 
	d="
M4.380725,693.465088 
	C4.227066,689.343018 4.042570,685.679077 4.042293,682.015076 
	C4.028272,496.682220 4.022106,311.349335 4.034426,126.016479 
	C4.038512,64.551346 45.723282,15.367128 106.403641,5.377378 
	C112.291649,4.408042 118.346901,4.086547 124.324738,4.084453 
	C310.824249,4.019110 497.323975,3.896871 683.823181,4.137246 
	C724.056580,4.189102 756.392151,21.181404 780.912292,53.090721 
	C782.606262,55.295174 784.612732,57.377045 786.828430,59.044949 
	C813.362366,79.019096 829.274963,105.402649 834.737610,138.110428 
	C835.118103,140.388931 834.989990,142.763168 834.990112,145.092880 
	C835.000122,336.592407 834.888794,528.092041 835.131409,719.591248 
	C835.163879,745.207336 827.077393,767.630981 812.128479,787.770325 
	C792.658508,814.000244 766.307983,829.284241 734.182007,834.703430 
	C731.903748,835.087708 729.531372,834.988525 727.202759,834.988647 
	C535.536560,835.000244 343.870270,834.894775 152.204361,835.124146 
	C126.579018,835.154785 104.224197,826.874756 84.122116,811.889282 
	C76.972427,806.559387 70.440681,800.152161 64.586815,793.403931 
	C59.007771,786.972717 53.146137,781.075989 46.641773,775.562561 
	C21.443764,754.203918 7.627556,726.760010 4.380725,693.465088 
M750.333679,49.151035 
	C731.444763,32.842373 709.537720,24.097706 684.573242,24.084503 
	C497.593689,23.985609 310.614075,24.018446 123.634506,24.090902 
	C118.167709,24.093019 112.610870,24.516169 107.248726,25.541597 
	C57.167351,35.118908 24.037239,75.259697 24.032810,126.234772 
	C24.016729,311.381226 24.020508,496.527679 24.060228,681.674133 
	C24.061226,686.323303 24.363617,690.994263 24.866402,695.618042 
	C30.274807,745.354919 72.819626,783.936707 122.930847,783.967896 
	C310.410278,784.084778 497.889832,784.024536 685.369324,783.957092 
	C690.505737,783.955200 695.720764,783.542725 700.765991,782.605347 
	C750.450256,773.374023 784.004639,733.013489 784.012573,682.478394 
	C784.041565,496.832001 784.022705,311.185608 784.025330,125.539223 
	C784.025757,95.400269 772.932922,70.117264 750.333679,49.151035 
z"/>
<path fill="#216AC4" opacity="1.000000" stroke="none" 
	d="
M750.591919,49.392380 
	C772.932922,70.117264 784.025757,95.400269 784.025330,125.539223 
	C784.022705,311.185608 784.041565,496.832001 784.012573,682.478394 
	C784.004639,733.013489 750.450256,773.374023 700.765991,782.605347 
	C695.720764,783.542725 690.505737,783.955200 685.369324,783.957092 
	C497.889832,784.024536 310.410278,784.084778 122.930847,783.967896 
	C72.819626,783.936707 30.274807,745.354919 24.866402,695.618042 
	C24.363617,690.994263 24.061226,686.323303 24.060228,681.674133 
	C24.020508,496.527679 24.016729,311.381226 24.032810,126.234772 
	C24.037239,75.259697 57.167351,35.118908 107.248726,25.541597 
	C112.610870,24.516169 118.167709,24.093019 123.634506,24.090902 
	C310.614075,24.018446 497.593689,23.985609 684.573242,24.084503 
	C709.537720,24.097706 731.444763,32.842373 750.591919,49.392380 
M448.977722,501.500122 
	C446.406586,458.099182 443.811920,414.699646 441.271515,371.296906 
	C439.120117,334.540436 437.038849,297.779846 434.910004,261.022064 
	C434.382690,251.916809 433.790985,242.815262 433.227600,233.690948 
	C407.884338,233.690948 383.131439,233.690948 358.409821,233.690948 
	C335.244995,302.167389 312.169098,370.380890 288.758575,439.583588 
	C287.881531,437.005402 287.395966,435.596741 286.922638,434.183990 
	C264.974091,368.675201 243.000854,303.174652 221.157135,237.630966 
	C220.093369,234.439056 218.813278,233.284363 215.326202,233.313766 
	C193.329391,233.499390 171.330246,233.401489 149.331879,233.422653 
	C147.904510,233.424026 146.477341,233.637192 144.719482,233.778397 
	C138.554825,340.628754 132.410400,447.128693 126.258980,553.749634 
	C147.758698,553.749634 168.679672,553.749634 190.002045,553.749634 
	C192.562119,478.159393 195.114166,402.806061 197.666214,327.452698 
	C199.149612,328.752777 199.782257,330.194061 200.301437,331.675110 
	C220.955994,390.592651 241.628418,449.503998 262.175232,508.459106 
	C263.393829,511.955597 264.913116,513.363586 268.823944,513.282349 
	C282.317078,513.001831 295.822937,513.010986 309.316620,513.278748 
	C313.126587,513.354370 314.797974,512.186707 316.033691,508.608551 
	C333.972107,456.665863 352.050385,404.771423 370.107178,352.869629 
	C373.133331,344.171478 376.216064,335.493042 379.272644,326.805481 
	C379.524994,326.859528 379.777344,326.913544 380.029724,326.967590 
	C382.587799,402.493469 385.145844,478.019348 387.707703,553.656555 
	C409.342133,553.656555 430.564728,553.656555 452.016296,553.656555 
	C450.996613,536.352173 449.997986,519.404541 448.977722,501.500122 
M621.921204,559.371033 
	C642.888672,557.475403 663.199036,552.968445 682.930542,544.346252 
	C679.047363,529.018921 675.242981,514.002747 671.389832,498.794006 
	C669.262817,499.525604 667.866699,500.008453 666.468872,500.486237 
	C645.798462,507.551697 624.679199,511.153442 602.751892,509.162415 
	C564.400330,505.680054 549.348877,473.850372 550.618164,437.934875 
	C593.684387,437.934875 636.766602,437.934875 680.089478,437.934875 
	C686.101685,412.603302 689.351501,387.384735 682.967102,362.095520 
	C675.953064,334.312408 658.372620,316.045380 630.577148,307.988678 
	C612.182190,302.656799 593.535645,302.505219 574.792297,305.329163 
	C540.280640,310.528900 516.522217,330.239990 501.179535,360.821442 
	C492.966339,377.192261 488.742157,394.751190 487.682983,412.995087 
	C485.961029,442.654938 488.076904,471.903717 499.447571,499.744202 
	C511.718719,529.789551 533.786926,548.603088 565.468872,556.274170 
	C583.838623,560.722046 602.374329,560.566345 621.921204,559.371033 
z"/>
<path fill="#FEFEFF" opacity="1.000000" stroke="none" 
	d="
M448.988525,501.978516 
	C449.997986,519.404541 450.996613,536.352173 452.016296,553.656555 
	C430.564728,553.656555 409.342133,553.656555 387.707703,553.656555 
	C385.145844,478.019348 382.587799,402.493469 380.029724,326.967590 
	C379.777344,326.913544 379.524994,326.859528 379.272644,326.805481 
	C376.216064,335.493042 373.133331,344.171478 370.107178,352.869629 
	C352.050385,404.771423 333.972107,456.665863 316.033691,508.608551 
	C314.797974,512.186707 313.126587,513.354370 309.316620,513.278748 
	C295.822937,513.010986 282.317078,513.001831 268.823944,513.282349 
	C264.913116,513.363586 263.393829,511.955597 262.175232,508.459106 
	C241.628418,449.503998 220.955994,390.592651 200.301437,331.675110 
	C199.782257,330.194061 199.149612,328.752777 197.666214,327.452698 
	C195.114166,402.806061 192.562119,478.159393 190.002045,553.749634 
	C168.679672,553.749634 147.758698,553.749634 126.258980,553.749634 
	C132.410400,447.128693 138.554825,340.628754 144.719482,233.778397 
	C146.477341,233.637192 147.904510,233.424026 149.331879,233.422653 
	C171.330246,233.401489 193.329391,233.499390 215.326202,233.313766 
	C218.813278,233.284363 220.093369,234.439056 221.157135,237.630966 
	C243.000854,303.174652 264.974091,368.675201 286.922638,434.183990 
	C287.395966,435.596741 287.881531,437.005402 288.758575,439.583588 
	C312.169098,370.380890 335.244995,302.167389 358.409821,233.690948 
	C383.131439,233.690948 407.884338,233.690948 433.227600,233.690948 
	C433.790985,242.815262 434.382690,251.916809 434.910004,261.022064 
	C437.038849,297.779846 439.120117,334.540436 441.271515,371.296906 
	C443.811920,414.699646 446.406586,458.099182 448.988525,501.978516 
z"/>
<path fill="#FDFEFF" opacity="1.000000" stroke="none" 
	d="
M621.466370,559.456055 
	C602.374329,560.566345 583.838623,560.722046 565.468872,556.274170 
	C533.786926,548.603088 511.718719,529.789551 499.447571,499.744202 
	C488.076904,471.903717 485.961029,442.654938 487.682983,412.995087 
	C488.742157,394.751190 492.966339,377.192261 501.179535,360.821442 
	C516.522217,330.239990 540.280640,310.528900 574.792297,305.329163 
	C593.535645,302.505219 612.182190,302.656799 630.577148,307.988678 
	C658.372620,316.045380 675.953064,334.312408 682.967102,362.095520 
	C689.351501,387.384735 686.101685,412.603302 680.089478,437.934875 
	C636.766602,437.934875 593.684387,437.934875 550.618164,437.934875 
	C549.348877,473.850372 564.400330,505.680054 602.751892,509.162415 
	C624.679199,511.153442 645.798462,507.551697 666.468872,500.486237 
	C667.866699,500.008453 669.262817,499.525604 671.389832,498.794006 
	C675.242981,514.002747 679.047363,529.018921 682.930542,544.346252 
	C663.199036,552.968445 642.888672,557.475403 621.466370,559.456055 
M559.540771,401.406189 
	C583.645935,401.406189 607.751099,401.406189 632.249451,401.406189 
	C632.424622,388.765778 631.790405,376.992126 625.834961,366.073517 
	C621.471924,358.074341 614.892822,353.206482 605.965881,351.882141 
	C573.021606,346.994873 554.273560,370.717468 551.171326,401.406494 
	C553.661194,401.406494 556.109680,401.406494 559.540771,401.406189 
z"/>
<path fill="#226AC4" opacity="1.000000" stroke="none" 
	d="
M559.049500,401.406342 
	C556.109680,401.406494 553.661194,401.406494 551.171326,401.406494 
	C554.273560,370.717468 573.021606,346.994873 605.965881,351.882141 
	C614.892822,353.206482 621.471924,358.074341 625.834961,366.073517 
	C631.790405,376.992126 632.424622,388.765778 632.249451,401.406189 
	C607.751099,401.406189 583.645935,401.406189 559.049500,401.406342 
z"/>
</svg>